<?xml version="1.0" encoding="UTF-8"?>
<svg xmlns="http://www.w3.org/2000/svg" xmlns:xlink="http://www.w3.org/1999/xlink" width="291" height="126" viewBox="0 0 291 126">
<defs>
<g>
<g id="glyph-0-0">
<path d="M 5.359375 -3.828125 C 5.359375 -4.8125 5.296875 -5.78125 4.859375 -6.6875 C 4.375 -7.6875 3.515625 -7.953125 2.921875 -7.953125 C 2.234375 -7.953125 1.390625 -7.609375 0.9375 -6.609375 C 0.609375 -5.859375 0.484375 -5.109375 0.484375 -3.828125 C 0.484375 -2.671875 0.578125 -1.796875 1 -0.9375 C 1.46875 -0.03125 2.296875 0.25 2.921875 0.25 C 3.953125 0.25 4.546875 -0.375 4.90625 -1.0625 C 5.328125 -1.953125 5.359375 -3.125 5.359375 -3.828125 Z M 4.453125 -3.96875 C 4.453125 -3.171875 4.453125 -2.265625 4.3125 -1.53125 C 4.09375 -0.21875 3.328125 0.015625 2.921875 0.015625 C 2.53125 0.015625 1.75 -0.203125 1.53125 -1.5 C 1.40625 -2.21875 1.40625 -3.125 1.40625 -3.96875 C 1.40625 -4.953125 1.40625 -5.828125 1.59375 -6.53125 C 1.796875 -7.34375 2.40625 -7.703125 2.921875 -7.703125 C 3.375 -7.703125 4.0625 -7.4375 4.296875 -6.40625 C 4.453125 -5.71875 4.453125 -4.78125 4.453125 -3.96875 Z M 4.453125 -3.96875 "/>
</g>
<g id="glyph-1-0">
<path d="M 3.59375 -1.421875 C 3.53125 -1.21875 3.53125 -1.1875 3.375 -0.96875 C 3.109375 -0.640625 2.578125 -0.125 2.015625 -0.125 C 1.53125 -0.125 1.25 -0.5625 1.25 -1.265625 C 1.25 -1.921875 1.625 -3.265625 1.859375 -3.765625 C 2.265625 -4.609375 2.828125 -5.03125 3.28125 -5.03125 C 4.078125 -5.03125 4.234375 -4.046875 4.234375 -3.953125 C 4.234375 -3.953125 4.203125 -3.796875 4.1875 -3.765625 Z M 5.796875 -1.703125 C 5.796875 -1.765625 5.75 -1.8125 5.671875 -1.8125 C 5.5625 -1.8125 5.5625 -1.75 5.515625 -1.578125 C 5.328125 -0.875 5.109375 -0.125 4.609375 -0.125 C 4.265625 -0.125 4.25 -0.4375 4.25 -0.671875 C 4.25 -0.9375 4.28125 -1.078125 4.390625 -1.546875 L 4.625 -2.453125 C 5.0625 -4.25 5.171875 -4.671875 5.171875 -4.75 C 5.171875 -4.90625 5.046875 -5.046875 4.859375 -5.046875 C 4.484375 -5.046875 4.390625 -4.625 4.359375 -4.484375 C 4.234375 -4.796875 3.90625 -5.265625 3.28125 -5.265625 C 1.9375 -5.265625 0.484375 -3.53125 0.484375 -1.75 C 0.484375 -0.578125 1.171875 0.125 1.984375 0.125 C 2.640625 0.125 3.203125 -0.390625 3.53125 -0.78125 C 3.65625 -0.078125 4.21875 0.125 4.578125 0.125 C 4.9375 0.125 5.21875 -0.09375 5.4375 -0.53125 C 5.625 -0.9375 5.796875 -1.65625 5.796875 -1.703125 Z M 5.796875 -1.703125 "/>
</g>
<g id="glyph-1-1">
<path d="M 4.8125 -3.390625 C 4.8125 -4.5 4.203125 -5.265625 3.296875 -5.265625 C 2.671875 -5.265625 2.109375 -4.75 1.890625 -4.515625 L 2.765625 -8 C 2.765625 -8.046875 2.796875 -8.109375 2.796875 -8.171875 C 2.796875 -8.296875 2.65625 -8.296875 2.65625 -8.296875 L 2 -8.234375 C 1.796875 -8.21875 1.609375 -8.203125 1.40625 -8.1875 C 1.109375 -8.15625 1.03125 -8.15625 1.03125 -7.9375 C 1.03125 -7.8125 1.140625 -7.8125 1.265625 -7.8125 C 1.875 -7.8125 1.875 -7.703125 1.875 -7.59375 C 1.875 -7.5 1.78125 -7.15625 1.734375 -6.9375 L 1.453125 -5.796875 L 0.59375 -2.390625 C 0.53125 -2.09375 0.53125 -1.890625 0.53125 -1.734375 C 0.53125 -0.515625 1.21875 0.125 2 0.125 C 3.375 0.125 4.8125 -1.65625 4.8125 -3.390625 Z M 3.40625 -1.34375 C 3.109375 -0.6875 2.5625 -0.125 2.015625 -0.125 C 1.625 -0.125 1.203125 -0.40625 1.203125 -1.34375 C 1.203125 -1.734375 1.25 -1.953125 1.453125 -2.796875 L 1.734375 -3.875 C 1.75 -3.96875 2.46875 -5.03125 3.28125 -5.03125 C 3.796875 -5.03125 4.046875 -4.5 4.046875 -3.890625 C 4.046875 -3.3125 3.703125 -1.953125 3.40625 -1.34375 Z M 3.40625 -1.34375 "/>
</g>
<g id="glyph-1-2">
<path d="M 5 -1.296875 C 5 -1.375 4.921875 -1.4375 4.875 -1.4375 C 4.84375 -1.4375 4.828125 -1.421875 4.71875 -1.3125 C 3.953125 -0.296875 2.828125 -0.125 2.359375 -0.125 C 1.546875 -0.125 1.28125 -0.84375 1.28125 -1.4375 C 1.28125 -1.859375 1.484375 -3.015625 1.90625 -3.828125 C 2.21875 -4.390625 2.875 -5.03125 3.625 -5.03125 C 3.78125 -5.03125 4.4375 -5.015625 4.671875 -4.5 C 4.453125 -4.5 4.34375 -4.5 4.171875 -4.34375 C 4.09375 -4.296875 3.96875 -4.109375 3.96875 -3.921875 C 3.96875 -3.6875 4.140625 -3.53125 4.375 -3.53125 C 4.65625 -3.53125 4.984375 -3.78125 4.984375 -4.25 C 4.984375 -4.828125 4.4375 -5.265625 3.609375 -5.265625 C 2.046875 -5.265625 0.484375 -3.5625 0.484375 -1.859375 C 0.484375 -0.828125 1.125 0.125 2.34375 0.125 C 3.96875 0.125 5 -1.140625 5 -1.296875 Z M 5 -1.296875 "/>
</g>
<g id="glyph-1-3">
<path d="M 5.734375 -1.703125 C 5.734375 -1.765625 5.6875 -1.8125 5.625 -1.8125 C 5.515625 -1.8125 5.5 -1.765625 5.453125 -1.578125 C 5.28125 -0.953125 5.03125 -0.125 4.421875 -0.125 C 4.1875 -0.125 4.03125 -0.234375 4.03125 -0.6875 C 4.03125 -0.921875 4.078125 -1.1875 4.125 -1.359375 C 4.171875 -1.578125 4.171875 -1.59375 4.171875 -1.734375 C 4.171875 -2.4375 3.53125 -2.828125 2.4375 -2.96875 C 2.875 -3.234375 3.296875 -3.703125 3.46875 -3.890625 C 4.140625 -4.65625 4.609375 -5.03125 5.15625 -5.03125 C 5.4375 -5.03125 5.515625 -4.953125 5.59375 -4.890625 C 5.15625 -4.84375 4.984375 -4.53125 4.984375 -4.296875 C 4.984375 -4 5.21875 -3.90625 5.375 -3.90625 C 5.703125 -3.90625 5.984375 -4.1875 5.984375 -4.5625 C 5.984375 -4.90625 5.71875 -5.265625 5.171875 -5.265625 C 4.515625 -5.265625 3.984375 -4.8125 3.125 -3.84375 C 3.015625 -3.703125 2.5625 -3.25 2.125 -3.078125 L 3.359375 -8 C 3.375 -8.046875 3.390625 -8.109375 3.390625 -8.171875 C 3.390625 -8.296875 3.25 -8.296875 3.25 -8.296875 L 2.59375 -8.234375 C 2.390625 -8.21875 2.21875 -8.203125 2 -8.1875 C 1.703125 -8.15625 1.625 -8.15625 1.625 -7.9375 C 1.625 -7.8125 1.75 -7.8125 1.859375 -7.8125 C 2.46875 -7.8125 2.46875 -7.703125 2.46875 -7.59375 C 2.46875 -7.546875 2.46875 -7.515625 2.421875 -7.296875 L 0.703125 -0.46875 C 0.65625 -0.28125 0.65625 -0.265625 0.65625 -0.1875 C 0.65625 0.078125 0.859375 0.125 0.984375 0.125 C 1.3125 0.125 1.390625 -0.140625 1.484375 -0.515625 C 1.59375 -0.953125 1.546875 -0.78125 2.046875 -2.75 C 2.90625 -2.65625 3.421875 -2.296875 3.421875 -1.71875 C 3.421875 -1.65625 3.421875 -1.609375 3.375 -1.421875 C 3.328125 -1.25 3.328125 -1.09375 3.328125 -1.046875 C 3.328125 -0.34375 3.796875 0.125 4.40625 0.125 C 4.953125 0.125 5.234375 -0.375 5.328125 -0.546875 C 5.578125 -0.984375 5.734375 -1.65625 5.734375 -1.703125 Z M 5.734375 -1.703125 "/>
</g>
<g id="glyph-1-4">
<path d="M 7.671875 -6.578125 C 7.671875 -5.96875 7.359375 -4.203125 4.953125 -4.203125 L 3.609375 -4.203125 L 4.40625 -7.34375 C 4.5 -7.796875 4.546875 -7.8125 5.015625 -7.8125 L 5.875 -7.8125 C 6.90625 -7.8125 7.671875 -7.5 7.671875 -6.578125 Z M 8.84375 -1.09375 C 8.84375 -1.1875 8.78125 -1.21875 8.71875 -1.21875 C 8.625 -1.21875 8.59375 -1.140625 8.578125 -1.046875 C 8.28125 -0.203125 7.796875 0.015625 7.5 0.015625 C 7.203125 0.015625 7 -0.125 7 -0.65625 C 7 -0.9375 7.140625 -2.03125 7.15625 -2.09375 C 7.21875 -2.53125 7.21875 -2.578125 7.21875 -2.671875 C 7.21875 -3.546875 6.515625 -3.921875 6.0625 -4.0625 C 7.546875 -4.390625 8.703125 -5.34375 8.703125 -6.375 C 8.703125 -7.296875 7.75 -8.15625 6.09375 -8.15625 L 2.859375 -8.15625 C 2.625 -8.15625 2.515625 -8.15625 2.515625 -7.9375 C 2.515625 -7.8125 2.59375 -7.8125 2.828125 -7.8125 C 3.53125 -7.8125 3.53125 -7.71875 3.53125 -7.59375 C 3.53125 -7.59375 3.53125 -7.5 3.484375 -7.3125 L 1.875 -0.890625 C 1.765625 -0.46875 1.75 -0.34375 0.921875 -0.34375 C 0.640625 -0.34375 0.5625 -0.34375 0.5625 -0.125 C 0.5625 0 0.6875 0 0.734375 0 C 0.9375 0 1.1875 -0.03125 1.421875 -0.03125 L 2.828125 -0.03125 C 3.046875 -0.03125 3.296875 0 3.515625 0 C 3.609375 0 3.734375 0 3.734375 -0.234375 C 3.734375 -0.34375 3.640625 -0.34375 3.453125 -0.34375 C 2.71875 -0.34375 2.71875 -0.4375 2.71875 -0.5625 C 2.71875 -0.5625 2.71875 -0.65625 2.75 -0.75 L 3.546875 -3.96875 L 4.984375 -3.96875 C 6.125 -3.96875 6.328125 -3.25 6.328125 -2.859375 C 6.328125 -2.671875 6.21875 -2.21875 6.125 -1.90625 C 6 -1.34375 5.96875 -1.21875 5.96875 -0.984375 C 5.96875 -0.140625 6.65625 0.25 7.453125 0.25 C 8.421875 0.25 8.84375 -0.9375 8.84375 -1.09375 Z M 8.84375 -1.09375 "/>
</g>
<g id="glyph-1-5">
<path d="M 5.734375 -1.703125 C 5.734375 -1.765625 5.6875 -1.8125 5.625 -1.8125 C 5.515625 -1.8125 5.5 -1.75 5.46875 -1.65625 C 5.140625 -0.609375 4.453125 -0.125 3.90625 -0.125 C 3.484375 -0.125 3.265625 -0.4375 3.265625 -0.921875 C 3.265625 -1.1875 3.3125 -1.375 3.5 -2.15625 L 3.921875 -3.796875 C 4.09375 -4.5 4.5 -5.03125 5.0625 -5.03125 C 5.0625 -5.03125 5.421875 -5.03125 5.671875 -4.875 C 5.28125 -4.8125 5.140625 -4.515625 5.140625 -4.296875 C 5.140625 -4 5.359375 -3.90625 5.53125 -3.90625 C 5.890625 -3.90625 6.140625 -4.21875 6.140625 -4.546875 C 6.140625 -5.046875 5.5625 -5.265625 5.0625 -5.265625 C 4.34375 -5.265625 3.9375 -4.546875 3.828125 -4.328125 C 3.546875 -5.21875 2.8125 -5.265625 2.59375 -5.265625 C 1.375 -5.265625 0.734375 -3.703125 0.734375 -3.4375 C 0.734375 -3.390625 0.78125 -3.328125 0.859375 -3.328125 C 0.953125 -3.328125 0.984375 -3.40625 1 -3.453125 C 1.40625 -4.78125 2.21875 -5.03125 2.5625 -5.03125 C 3.09375 -5.03125 3.203125 -4.53125 3.203125 -4.25 C 3.203125 -3.984375 3.125 -3.703125 2.984375 -3.125 L 2.578125 -1.5 C 2.40625 -0.78125 2.0625 -0.125 1.421875 -0.125 C 1.359375 -0.125 1.0625 -0.125 0.8125 -0.28125 C 1.25 -0.359375 1.34375 -0.71875 1.34375 -0.859375 C 1.34375 -1.09375 1.15625 -1.25 0.9375 -1.25 C 0.640625 -1.25 0.328125 -0.984375 0.328125 -0.609375 C 0.328125 -0.109375 0.890625 0.125 1.40625 0.125 C 1.984375 0.125 2.390625 -0.328125 2.640625 -0.828125 C 2.828125 -0.125 3.4375 0.125 3.875 0.125 C 5.09375 0.125 5.734375 -1.453125 5.734375 -1.703125 Z M 5.734375 -1.703125 "/>
</g>
<g id="glyph-1-6">
<path d="M 4.046875 -1.515625 C 4 -1.328125 3.96875 -1.28125 3.8125 -1.09375 C 3.328125 -0.46875 2.828125 -0.234375 2.453125 -0.234375 C 2.0625 -0.234375 1.6875 -0.546875 1.6875 -1.375 C 1.6875 -2.015625 2.046875 -3.34375 2.3125 -3.890625 C 2.65625 -4.546875 3.1875 -5.03125 3.6875 -5.03125 C 4.484375 -5.03125 4.640625 -4.046875 4.640625 -3.984375 L 4.609375 -3.8125 Z M 4.21875 0.796875 L 5.546875 -4.546875 C 5.578125 -4.703125 5.578125 -4.75 5.578125 -4.75 C 5.578125 -4.90625 5.453125 -5.046875 5.265625 -5.046875 C 4.984375 -5.046875 4.8125 -4.8125 4.78125 -4.484375 C 4.625 -4.828125 4.296875 -5.265625 3.6875 -5.265625 C 2.390625 -5.265625 0.90625 -3.640625 0.90625 -1.859375 C 0.90625 -0.609375 1.65625 0 2.421875 0 C 3.0625 0 3.625 -0.5 3.84375 -0.734375 C 3.640625 0.0625 3.640625 0.078125 3.578125 0.328125 C 3.40625 0.984375 3.328125 1.296875 2.90625 1.703125 C 2.421875 2.203125 1.953125 2.203125 1.703125 2.203125 C 1.34375 2.203125 1.046875 2.171875 0.734375 2.078125 C 1.125 1.96875 1.21875 1.640625 1.21875 1.5 C 1.21875 1.3125 1.078125 1.125 0.8125 1.125 C 0.53125 1.125 0.21875 1.359375 0.21875 1.75 C 0.21875 2.25 0.703125 2.4375 1.71875 2.4375 C 3.265625 2.4375 4.0625 1.453125 4.21875 0.796875 Z M 4.21875 0.796875 "/>
</g>
<g id="glyph-1-7">
<path d="M 6.390625 -1.703125 C 6.390625 -1.765625 6.34375 -1.8125 6.28125 -1.8125 C 6.171875 -1.8125 6.15625 -1.78125 6.09375 -1.578125 C 5.828125 -0.625 5.375 -0.125 4.90625 -0.125 C 4.78125 -0.125 4.59375 -0.125 4.59375 -0.515625 C 4.59375 -0.828125 4.734375 -1.203125 4.78125 -1.34375 C 5 -1.90625 5.53125 -3.328125 5.53125 -4.015625 C 5.53125 -4.734375 5.109375 -5.265625 4.203125 -5.265625 C 3.53125 -5.265625 2.921875 -4.953125 2.4375 -4.328125 L 3.359375 -8 C 3.375 -8.046875 3.390625 -8.109375 3.390625 -8.171875 C 3.390625 -8.296875 3.25 -8.296875 3.25 -8.296875 C 3.25 -8.296875 2.65625 -8.25 2.59375 -8.234375 C 2.390625 -8.21875 2.21875 -8.203125 2 -8.1875 C 1.703125 -8.15625 1.609375 -8.15625 1.609375 -7.9375 C 1.609375 -7.8125 1.703125 -7.8125 1.875 -7.8125 C 2.46875 -7.8125 2.46875 -7.703125 2.46875 -7.59375 C 2.46875 -7.515625 2.453125 -7.421875 2.4375 -7.390625 L 0.703125 -0.46875 C 0.65625 -0.28125 0.65625 -0.265625 0.65625 -0.1875 C 0.65625 0.078125 0.859375 0.125 0.984375 0.125 C 1.1875 0.125 1.34375 -0.03125 1.40625 -0.171875 L 1.9375 -2.328125 C 2 -2.59375 2.0625 -2.84375 2.125 -3.109375 C 2.265625 -3.609375 2.265625 -3.625 2.484375 -3.96875 C 2.71875 -4.3125 3.25 -5.03125 4.171875 -5.03125 C 4.65625 -5.03125 4.8125 -4.671875 4.8125 -4.203125 C 4.8125 -3.53125 4.34375 -2.21875 4.09375 -1.5 C 3.984375 -1.21875 3.921875 -1.0625 3.921875 -0.84375 C 3.921875 -0.3125 4.296875 0.125 4.859375 0.125 C 5.96875 0.125 6.390625 -1.640625 6.390625 -1.703125 Z M 6.390625 -1.703125 "/>
</g>
</g>
<clipPath id="clip-0">
<path clip-rule="nonzero" d="M 31 14 L 33 14 L 33 110.425781 L 31 110.425781 Z M 31 14 "/>
</clipPath>
<clipPath id="clip-1">
<path clip-rule="nonzero" d="M 66 28 L 68 28 L 68 110.425781 L 66 110.425781 Z M 66 28 "/>
</clipPath>
<clipPath id="clip-2">
<path clip-rule="nonzero" d="M 196 82 L 198 82 L 198 110.425781 L 196 110.425781 Z M 196 82 "/>
</clipPath>
<clipPath id="clip-3">
<path clip-rule="nonzero" d="M 15.695312 5 L 289.757812 5 L 289.757812 110.425781 L 15.695312 110.425781 Z M 15.695312 5 "/>
</clipPath>
<clipPath id="clip-4">
<path clip-rule="nonzero" d="M 15.695312 7 L 267 7 L 267 110.425781 L 15.695312 110.425781 Z M 15.695312 7 "/>
</clipPath>
</defs>
<rect x="-29.1" y="-12.6" width="349.2" height="151.2" fill="rgb(100%, 100%, 100%)" fill-opacity="1"/>
<path fill-rule="nonzero" fill="rgb(100%, 100%, 100%)" fill-opacity="1" d="M 15.695312 110.425781 L 289.757812 110.425781 L 289.757812 1.027344 L 15.695312 1.027344 Z M 15.695312 110.425781 "/>
<path fill="none" stroke-width="0.8" stroke-linecap="butt" stroke-linejoin="round" stroke="rgb(0%, 0%, 0%)" stroke-opacity="1" stroke-miterlimit="10" d="M 0.0001825 0.00048875 L 0.0001825 -3.499511 " transform="matrix(1, 0, 0, -1, 15.69513, 110.42627)"/>
<g fill="rgb(0%, 0%, 0%)" fill-opacity="1">
<use xlink:href="#glyph-0-0" x="12.766" y="125.377"/>
</g>
<path fill="none" stroke-width="0.8" stroke-linecap="butt" stroke-linejoin="round" stroke="rgb(0%, 0%, 0%)" stroke-opacity="1" stroke-miterlimit="10" d="M -0.00127125 0.00048875 L -0.00127125 -3.499511 " transform="matrix(1, 0, 0, -1, 32.38799, 110.42627)"/>
<g fill="rgb(0%, 0%, 0%)" fill-opacity="1">
<use xlink:href="#glyph-1-0" x="29.315" y="122.574"/>
</g>
<path fill="none" stroke-width="0.8" stroke-linecap="butt" stroke-linejoin="round" stroke="rgb(0%, 0%, 0%)" stroke-opacity="1" stroke-miterlimit="10" d="M -0.00060875 0.00048875 L -0.00060875 -3.499511 " transform="matrix(1, 0, 0, -1, 66.77014, 110.42627)"/>
<g fill="rgb(0%, 0%, 0%)" fill-opacity="1">
<use xlink:href="#glyph-1-1" x="64.282" y="125.729"/>
</g>
<path fill="none" stroke-width="0.8" stroke-linecap="butt" stroke-linejoin="round" stroke="rgb(0%, 0%, 0%)" stroke-opacity="1" stroke-miterlimit="10" d="M 0.00185875 0.00048875 L 0.00185875 -3.499511 " transform="matrix(1, 0, 0, -1, 197.32236, 110.42627)"/>
<g fill="rgb(0%, 0%, 0%)" fill-opacity="1">
<use xlink:href="#glyph-1-2" x="194.803" y="122.574"/>
</g>
<path fill="none" stroke-width="0.8" stroke-linecap="butt" stroke-linejoin="round" stroke="rgb(0%, 0%, 0%)" stroke-opacity="1" stroke-miterlimit="10" d="M -0.00097625 0.00048875 L -0.00097625 -3.499511 " transform="matrix(1, 0, 0, -1, 264.84082, 110.42627)"/>
<g fill="rgb(0%, 0%, 0%)" fill-opacity="1">
<use xlink:href="#glyph-1-3" x="261.596" y="125.729"/>
</g>
<path fill="none" stroke-width="0.8" stroke-linecap="butt" stroke-linejoin="round" stroke="rgb(0%, 0%, 0%)" stroke-opacity="1" stroke-miterlimit="10" d="M 0.0001825 0.00048875 L -3.499817 0.00048875 " transform="matrix(1, 0, 0, -1, 15.69513, 110.42627)"/>
<g fill="rgb(0%, 0%, 0%)" fill-opacity="1">
<use xlink:href="#glyph-0-0" x="1.06" y="114.985"/>
</g>
<path fill="none" stroke-width="0.8" stroke-linecap="butt" stroke-linejoin="round" stroke="rgb(0%, 0%, 0%)" stroke-opacity="1" stroke-miterlimit="10" d="M 0.0001825 0.00148125 L -3.499817 0.00148125 " transform="matrix(1, 0, 0, -1, 15.69513, 7.7632)"/>
<g fill="rgb(0%, 0%, 0%)" fill-opacity="1">
<use xlink:href="#glyph-1-4" x="-0.347" y="12.323"/>
</g>
<g clip-path="url(#clip-0)">
<path fill="none" stroke-width="0.8" stroke-linecap="butt" stroke-linejoin="round" stroke="rgb(0%, 0%, 0%)" stroke-opacity="1" stroke-dasharray="2.94897 1.27522" stroke-miterlimit="10" d="M 42.386719 16.113219 L 42.386719 111.898375 " transform="matrix(1, 0, 0, -1, -10, 126.539)"/>
</g>
<g clip-path="url(#clip-1)">
<path fill="none" stroke-width="0.8" stroke-linecap="butt" stroke-linejoin="round" stroke="rgb(0%, 0%, 0%)" stroke-opacity="1" stroke-dasharray="2.94897 1.27522" stroke-miterlimit="10" d="M 76.769531 16.113219 L 76.769531 97.730406 " transform="matrix(1, 0, 0, -1, -10, 126.539)"/>
</g>
<g clip-path="url(#clip-2)">
<path fill="none" stroke-width="0.8" stroke-linecap="butt" stroke-linejoin="round" stroke="rgb(0%, 0%, 0%)" stroke-opacity="1" stroke-dasharray="2.94897 1.27522" stroke-miterlimit="10" d="M 207.324219 16.113219 L 207.324219 43.933531 " transform="matrix(1, 0, 0, -1, -10, 126.539)"/>
</g>
<g clip-path="url(#clip-3)">
<path fill="none" stroke-width="1.50002" stroke-linecap="square" stroke-linejoin="round" stroke="rgb(12.155151%, 46.665955%, 70.587158%)" stroke-opacity="1" stroke-miterlimit="10" d="M 25.695312 16.113219 L 28.4375 38.675719 L 30.085938 51.550719 L 31.457031 61.636656 L 32.554688 69.183531 L 33.652344 76.210875 L 34.75 82.683531 L 35.84375 88.581969 L 36.667969 92.621031 L 37.492188 96.328063 L 38.316406 99.714781 L 39.136719 102.781188 L 39.960938 105.542906 L 40.785156 108.011656 L 41.605469 110.19525 L 42.429688 112.109313 L 43.253906 113.769469 L 44.074219 115.19525 L 44.898438 116.394469 L 45.449219 117.078063 L 45.996094 117.675719 L 46.546875 118.187438 L 47.09375 118.624938 L 47.644531 118.984313 L 48.191406 119.273375 L 48.738281 119.496031 L 49.289062 119.660094 L 49.835938 119.761656 L 50.660156 119.812438 L 51.484375 119.749938 L 52.304688 119.585875 L 53.128906 119.331969 L 53.953125 118.996031 L 54.773438 118.585875 L 55.871094 117.937438 L 56.96875 117.187438 L 58.339844 116.136656 L 59.710938 114.980406 L 61.359375 113.484313 L 63.28125 111.624938 L 66.023438 108.847594 L 76.445312 98.156188 L 79.464844 95.2265 L 82.207031 92.667906 L 84.953125 90.214781 L 87.695312 87.867125 L 90.4375 85.628844 L 93.183594 83.496031 L 95.925781 81.464781 L 98.667969 79.531188 L 101.410156 77.691344 L 104.15625 75.941344 L 107.171875 74.109313 L 110.191406 72.374938 L 113.207031 70.730406 L 116.5 69.035094 L 119.792969 67.429625 L 123.085938 65.914 L 126.652344 64.359313 L 130.21875 62.890563 L 134.058594 61.402281 L 137.898438 59.999938 L 142.011719 58.585875 L 146.128906 57.25775 L 150.519531 55.921813 L 155.183594 54.593688 L 159.84375 53.347594 L 164.78125 52.109313 L 169.996094 50.886656 L 175.484375 49.683531 L 181.242188 48.503844 L 187.277344 47.347594 L 193.589844 46.2265 L 200.171875 45.136656 L 207.304688 44.039 L 214.710938 42.984313 L 222.394531 41.968688 L 230.625 40.960875 L 239.402344 39.968688 L 248.730469 38.996031 L 258.605469 38.046813 L 269.03125 37.128844 L 280.277344 36.218688 L 292.074219 35.343688 L 299.757812 34.812438 " transform="matrix(1, 0, 0, -1, -10, 126.539)"/>
</g>
<g clip-path="url(#clip-4)">
<path fill="none" stroke-width="1.50002" stroke-linecap="butt" stroke-linejoin="round" stroke="rgb(100%, 49.801636%, 5.488586%)" stroke-opacity="1" stroke-dasharray="5.52933 2.39105" stroke-miterlimit="10" d="M 25.695312 118.777281 L 275.714844 15.753844 " transform="matrix(1, 0, 0, -1, -10, 126.539)"/>
</g>
<path fill="none" stroke-width="0.8" stroke-linecap="square" stroke-linejoin="miter" stroke="rgb(0%, 0%, 0%)" stroke-opacity="1" stroke-miterlimit="10" d="M 25.695312 16.113219 L 25.695312 125.511656 " transform="matrix(1, 0, 0, -1, -10, 126.539)"/>
<path fill="none" stroke-width="0.8" stroke-linecap="square" stroke-linejoin="miter" stroke="rgb(0%, 0%, 0%)" stroke-opacity="1" stroke-miterlimit="10" d="M 25.695312 16.113219 L 299.757812 16.113219 " transform="matrix(1, 0, 0, -1, -10, 126.539)"/>
<g fill="rgb(0%, 0%, 0%)" fill-opacity="1">
<use xlink:href="#glyph-1-5" x="283.104" y="122.574"/>
</g>
<path fill="none" stroke-width="1.50002" stroke-linecap="square" stroke-linejoin="round" stroke="rgb(12.155151%, 46.665955%, 70.587158%)" stroke-opacity="1" stroke-miterlimit="10" d="M 259.390625 120.593688 L 283.390625 120.593688 " transform="matrix(1, 0, 0, -1, -10, 126.539)"/>
<g fill="rgb(0%, 0%, 0%)" fill-opacity="1">
<use xlink:href="#glyph-1-6" x="282.992" y="10.146"/>
</g>
<path fill="none" stroke-width="1.50002" stroke-linecap="butt" stroke-linejoin="round" stroke="rgb(100%, 49.801636%, 5.488586%)" stroke-opacity="1" stroke-dasharray="5.52933 2.39105" stroke-miterlimit="10" d="M 259.390625 102.980406 L 283.390625 102.980406 " transform="matrix(1, 0, 0, -1, -10, 126.539)"/>
<g fill="rgb(0%, 0%, 0%)" fill-opacity="1">
<use xlink:href="#glyph-1-7" x="282.992" y="27.76"/>
</g>
</svg>
