<?xml version="1.0" encoding="UTF-8"?>
<svg xmlns="http://www.w3.org/2000/svg" xmlns:xlink="http://www.w3.org/1999/xlink" width="177.507pt" height="112.654pt" viewBox="0 0 177.507 112.654">
<defs>
<g>
<g id="glyph-0-0">
<path d="M 3.328125 -3.015625 C 3.390625 -3.265625 3.625 -4.1875 4.3125 -4.1875 C 4.359375 -4.1875 4.609375 -4.1875 4.8125 -4.0625 C 4.53125 -4 4.34375 -3.765625 4.34375 -3.515625 C 4.34375 -3.359375 4.453125 -3.171875 4.71875 -3.171875 C 4.9375 -3.171875 5.25 -3.34375 5.25 -3.75 C 5.25 -4.265625 4.671875 -4.40625 4.328125 -4.40625 C 3.75 -4.40625 3.40625 -3.875 3.28125 -3.65625 C 3.03125 -4.3125 2.5 -4.40625 2.203125 -4.40625 C 1.171875 -4.40625 0.59375 -3.125 0.59375 -2.875 C 0.59375 -2.765625 0.703125 -2.765625 0.71875 -2.765625 C 0.796875 -2.765625 0.828125 -2.796875 0.84375 -2.875 C 1.1875 -3.9375 1.84375 -4.1875 2.1875 -4.1875 C 2.375 -4.1875 2.71875 -4.09375 2.71875 -3.515625 C 2.71875 -3.203125 2.546875 -2.546875 2.1875 -1.140625 C 2.03125 -0.53125 1.671875 -0.109375 1.234375 -0.109375 C 1.171875 -0.109375 0.953125 -0.109375 0.734375 -0.234375 C 0.984375 -0.296875 1.203125 -0.5 1.203125 -0.78125 C 1.203125 -1.046875 0.984375 -1.125 0.84375 -1.125 C 0.53125 -1.125 0.296875 -0.875 0.296875 -0.546875 C 0.296875 -0.09375 0.78125 0.109375 1.21875 0.109375 C 1.890625 0.109375 2.25 -0.59375 2.265625 -0.640625 C 2.390625 -0.28125 2.75 0.109375 3.34375 0.109375 C 4.375 0.109375 4.9375 -1.171875 4.9375 -1.421875 C 4.9375 -1.53125 4.859375 -1.53125 4.828125 -1.53125 C 4.734375 -1.53125 4.71875 -1.484375 4.6875 -1.421875 C 4.359375 -0.34375 3.6875 -0.109375 3.375 -0.109375 C 2.984375 -0.109375 2.828125 -0.421875 2.828125 -0.765625 C 2.828125 -0.984375 2.875 -1.203125 2.984375 -1.640625 Z M 3.328125 -3.015625 "/>
</g>
<g id="glyph-0-1">
<path d="M 4.84375 -3.796875 C 4.890625 -3.9375 4.890625 -3.953125 4.890625 -4.03125 C 4.890625 -4.203125 4.75 -4.296875 4.59375 -4.296875 C 4.5 -4.296875 4.34375 -4.234375 4.25 -4.09375 C 4.234375 -4.03125 4.140625 -3.734375 4.109375 -3.546875 C 4.03125 -3.296875 3.96875 -3.015625 3.90625 -2.75 L 3.453125 -0.953125 C 3.421875 -0.8125 2.984375 -0.109375 2.328125 -0.109375 C 1.828125 -0.109375 1.71875 -0.546875 1.71875 -0.921875 C 1.71875 -1.375 1.890625 -2 2.21875 -2.875 C 2.375 -3.28125 2.421875 -3.390625 2.421875 -3.59375 C 2.421875 -4.03125 2.109375 -4.40625 1.609375 -4.40625 C 0.65625 -4.40625 0.296875 -2.953125 0.296875 -2.875 C 0.296875 -2.765625 0.390625 -2.765625 0.40625 -2.765625 C 0.515625 -2.765625 0.515625 -2.796875 0.5625 -2.953125 C 0.84375 -3.890625 1.234375 -4.1875 1.578125 -4.1875 C 1.65625 -4.1875 1.828125 -4.1875 1.828125 -3.875 C 1.828125 -3.625 1.71875 -3.359375 1.65625 -3.171875 C 1.25 -2.109375 1.078125 -1.546875 1.078125 -1.078125 C 1.078125 -0.1875 1.703125 0.109375 2.296875 0.109375 C 2.6875 0.109375 3.015625 -0.0625 3.296875 -0.34375 C 3.171875 0.171875 3.046875 0.671875 2.65625 1.203125 C 2.390625 1.53125 2.015625 1.828125 1.5625 1.828125 C 1.421875 1.828125 0.96875 1.796875 0.796875 1.40625 C 0.953125 1.40625 1.09375 1.40625 1.21875 1.28125 C 1.328125 1.203125 1.421875 1.0625 1.421875 0.875 C 1.421875 0.5625 1.15625 0.53125 1.0625 0.53125 C 0.828125 0.53125 0.5 0.6875 0.5 1.171875 C 0.5 1.671875 0.9375 2.046875 1.5625 2.046875 C 2.578125 2.046875 3.609375 1.140625 3.890625 0.015625 Z M 4.84375 -3.796875 "/>
</g>
<g id="glyph-0-2">
<path d="M 6.734375 -2.265625 C 6.84375 -2.328125 6.921875 -2.375 6.921875 -2.5 C 6.921875 -2.609375 6.84375 -2.65625 6.734375 -2.71875 L 1.203125 -5.3125 C 1.078125 -5.390625 1.0625 -5.390625 1.03125 -5.390625 C 0.921875 -5.390625 0.828125 -5.296875 0.828125 -5.1875 C 0.828125 -5.09375 0.875 -5.03125 1.015625 -4.96875 L 6.25 -2.5 L 1.015625 -0.015625 C 0.875 0.046875 0.828125 0.109375 0.828125 0.203125 C 0.828125 0.3125 0.921875 0.40625 1.03125 0.40625 C 1.0625 0.40625 1.078125 0.40625 1.203125 0.328125 Z M 6.734375 -2.265625 "/>
</g>
<g id="glyph-0-3">
<path d="M 6.734375 -4.96875 C 6.84375 -5.03125 6.921875 -5.078125 6.921875 -5.1875 C 6.921875 -5.296875 6.828125 -5.390625 6.71875 -5.390625 C 6.6875 -5.390625 6.671875 -5.390625 6.546875 -5.3125 L 1.015625 -2.71875 C 0.90625 -2.65625 0.828125 -2.609375 0.828125 -2.5 C 0.828125 -2.375 0.90625 -2.328125 1.015625 -2.265625 L 6.546875 0.328125 C 6.671875 0.40625 6.6875 0.40625 6.71875 0.40625 C 6.828125 0.40625 6.921875 0.3125 6.921875 0.203125 C 6.921875 0.09375 6.84375 0.046875 6.734375 -0.015625 L 1.5 -2.5 Z M 6.734375 -4.96875 "/>
</g>
<g id="glyph-1-0">
<path d="M 1.90625 -6.140625 C 1.90625 -6.40625 1.6875 -6.671875 1.390625 -6.671875 C 1.046875 -6.671875 0.84375 -6.390625 0.84375 -6.140625 C 0.84375 -5.875 1.078125 -5.609375 1.375 -5.609375 C 1.71875 -5.609375 1.90625 -5.890625 1.90625 -6.140625 Z M 1.90625 -6.140625 "/>
</g>
<g id="glyph-1-1">
<path d="M 6.84375 -3.265625 C 7 -3.265625 7.1875 -3.265625 7.1875 -3.453125 C 7.1875 -3.65625 7 -3.65625 6.859375 -3.65625 L 0.890625 -3.65625 C 0.75 -3.65625 0.5625 -3.65625 0.5625 -3.453125 C 0.5625 -3.265625 0.75 -3.265625 0.890625 -3.265625 Z M 6.859375 -1.328125 C 7 -1.328125 7.1875 -1.328125 7.1875 -1.53125 C 7.1875 -1.71875 7 -1.71875 6.84375 -1.71875 L 0.890625 -1.71875 C 0.75 -1.71875 0.5625 -1.71875 0.5625 -1.53125 C 0.5625 -1.328125 0.75 -1.328125 0.890625 -1.328125 Z M 6.859375 -1.328125 "/>
</g>
<g id="glyph-1-2">
<path d="M 4.578125 -3.1875 C 4.578125 -3.984375 4.53125 -4.78125 4.1875 -5.515625 C 3.734375 -6.484375 2.90625 -6.640625 2.5 -6.640625 C 1.890625 -6.640625 1.171875 -6.375 0.75 -5.453125 C 0.4375 -4.765625 0.390625 -3.984375 0.390625 -3.1875 C 0.390625 -2.4375 0.421875 -1.546875 0.84375 -0.78125 C 1.265625 0.015625 2 0.21875 2.484375 0.21875 C 3.015625 0.21875 3.78125 0.015625 4.21875 -0.9375 C 4.53125 -1.625 4.578125 -2.40625 4.578125 -3.1875 Z M 2.484375 0 C 2.09375 0 1.5 -0.25 1.328125 -1.203125 C 1.21875 -1.796875 1.21875 -2.71875 1.21875 -3.3125 C 1.21875 -3.953125 1.21875 -4.609375 1.296875 -5.140625 C 1.484375 -6.328125 2.234375 -6.421875 2.484375 -6.421875 C 2.8125 -6.421875 3.46875 -6.234375 3.65625 -5.25 C 3.765625 -4.6875 3.765625 -3.9375 3.765625 -3.3125 C 3.765625 -2.5625 3.765625 -1.890625 3.65625 -1.25 C 3.5 -0.296875 2.9375 0 2.484375 0 Z M 2.484375 0 "/>
</g>
</g>
<clipPath id="clip-0">
<path clip-rule="nonzero" d="M 53 33 L 59 33 L 59 40.949219 L 53 40.949219 Z M 53 33 "/>
</clipPath>
</defs>
<path fill="none" stroke-width="0.4" stroke-linecap="butt" stroke-linejoin="round" stroke="rgb(0%, 0%, 0%)" stroke-opacity="1" stroke-miterlimit="10" d="M 128 784.001656 L 128 684.001656 " transform="matrix(1, 0, 0, -1, -119, 791.654)"/>
<path fill="none" stroke-width="0.4" stroke-linecap="butt" stroke-linejoin="round" stroke="rgb(0%, 0%, 0%)" stroke-opacity="1" stroke-miterlimit="10" d="M 124 688.001656 L 272 688.001656 " transform="matrix(1, 0, 0, -1, -119, 791.654)"/>
<path fill="none" stroke-width="0.8" stroke-linecap="butt" stroke-linejoin="round" stroke="rgb(100%, 49.798584%, 5.499268%)" stroke-opacity="1" stroke-miterlimit="10" d="M 144 704.001656 C 161.714844 736.001656 268 736.001656 268 768.001656 " transform="matrix(1, 0, 0, -1, -119, 791.654)"/>
<path fill="none" stroke-width="0.8" stroke-linecap="butt" stroke-linejoin="round" stroke="rgb(12.199402%, 46.699524%, 70.599365%)" stroke-opacity="1" stroke-miterlimit="10" d="M 144 746.107125 C 176 726.739937 180 707.37275 186 697.68525 C 192 688.001656 200 688.001656 208 695.263375 C 216 702.529 224 717.056344 240 780.001656 " transform="matrix(1, 0, 0, -1, -119, 791.654)"/>
<g fill="rgb(0%, 0%, 0%)" fill-opacity="1">
<use xlink:href="#glyph-0-0" x="147.306" y="111.654"/>
</g>
<g fill="rgb(0%, 0%, 0%)" fill-opacity="1">
<use xlink:href="#glyph-0-1" x="1" y="11.648"/>
</g>
<g fill="rgb(12.199402%, 46.699524%, 70.599365%)" fill-opacity="1">
<use xlink:href="#glyph-1-0" x="98.74" y="7.654"/>
</g>
<g fill="rgb(12.199402%, 46.699524%, 70.599365%)" fill-opacity="1">
<use xlink:href="#glyph-0-0" x="97.004515" y="7.654"/>
</g>
<g fill="rgb(12.199402%, 46.699524%, 70.599365%)" fill-opacity="1">
<use xlink:href="#glyph-1-1" x="105.457781" y="7.654"/>
</g>
<g fill="rgb(12.199402%, 46.699524%, 70.599365%)" fill-opacity="1">
<use xlink:href="#glyph-1-2" x="115.976294" y="7.654"/>
</g>
<g fill="rgb(100%, 49.798584%, 5.499268%)" fill-opacity="1">
<use xlink:href="#glyph-1-0" x="154.791" y="27.647"/>
</g>
<g fill="rgb(100%, 49.798584%, 5.499268%)" fill-opacity="1">
<use xlink:href="#glyph-0-1" x="152.995739" y="27.647"/>
</g>
<g fill="rgb(100%, 49.798584%, 5.499268%)" fill-opacity="1">
<use xlink:href="#glyph-1-1" x="161.008659" y="27.647"/>
</g>
<g fill="rgb(100%, 49.798584%, 5.499268%)" fill-opacity="1">
<use xlink:href="#glyph-1-2" x="171.527172" y="27.647"/>
</g>
<g fill="rgb(0%, 0%, 0%)" fill-opacity="1">
<use xlink:href="#glyph-1-0" x="70.693" y="70.786"/>
</g>
<g fill="rgb(0%, 0%, 0%)" fill-opacity="1">
<use xlink:href="#glyph-0-0" x="68.957515" y="70.786"/>
</g>
<g fill="rgb(0%, 0%, 0%)" fill-opacity="1">
<use xlink:href="#glyph-0-2" x="77.410781" y="70.786"/>
</g>
<g fill="rgb(0%, 0%, 0%)" fill-opacity="1">
<use xlink:href="#glyph-1-2" x="87.929294" y="70.786"/>
</g>
<g fill="rgb(0%, 0%, 0%)" fill-opacity="1">
<use xlink:href="#glyph-1-0" x="70.903" y="80.575"/>
</g>
<g fill="rgb(0%, 0%, 0%)" fill-opacity="1">
<use xlink:href="#glyph-0-1" x="69.107739" y="80.575"/>
</g>
<g fill="rgb(0%, 0%, 0%)" fill-opacity="1">
<use xlink:href="#glyph-0-2" x="77.120659" y="80.575"/>
</g>
<g fill="rgb(0%, 0%, 0%)" fill-opacity="1">
<use xlink:href="#glyph-1-2" x="87.639172" y="80.575"/>
</g>
<path fill="none" stroke-width="0.4" stroke-linecap="butt" stroke-linejoin="round" stroke="rgb(17.298889%, 62.69989%, 17.298889%)" stroke-opacity="1" stroke-miterlimit="10" d="M 191.863281 697.439156 L 191.863281 705.439156 " transform="matrix(1, 0, 0, -1, -119, 791.654)"/>
<path fill="none" stroke-width="0.4" stroke-linecap="butt" stroke-linejoin="round" stroke="rgb(17.298889%, 62.69989%, 17.298889%)" stroke-opacity="1" stroke-miterlimit="10" d="M 190.867188 702.439156 L 191.863281 705.439156 L 192.863281 702.439156 " transform="matrix(1, 0, 0, -1, -119, 791.654)"/>
<path fill="none" stroke-width="0.4" stroke-linecap="butt" stroke-linejoin="round" stroke="rgb(17.298889%, 62.69989%, 17.298889%)" stroke-opacity="1" stroke-miterlimit="10" d="M 191.863281 697.439156 L 199.863281 697.439156 " transform="matrix(1, 0, 0, -1, -119, 791.654)"/>
<path fill="none" stroke-width="0.4" stroke-linecap="butt" stroke-linejoin="round" stroke="rgb(17.298889%, 62.69989%, 17.298889%)" stroke-opacity="1" stroke-miterlimit="10" d="M 196.863281 698.43525 L 199.863281 697.439156 L 196.863281 696.439156 " transform="matrix(1, 0, 0, -1, -119, 791.654)"/>
<g fill="rgb(0%, 0%, 0%)" fill-opacity="1">
<use xlink:href="#glyph-1-0" x="14.491" y="62.516"/>
</g>
<g fill="rgb(0%, 0%, 0%)" fill-opacity="1">
<use xlink:href="#glyph-0-0" x="12.755515" y="62.516"/>
</g>
<g fill="rgb(0%, 0%, 0%)" fill-opacity="1">
<use xlink:href="#glyph-0-3" x="21.208781" y="62.516"/>
</g>
<g fill="rgb(0%, 0%, 0%)" fill-opacity="1">
<use xlink:href="#glyph-1-2" x="31.727294" y="62.516"/>
</g>
<g fill="rgb(0%, 0%, 0%)" fill-opacity="1">
<use xlink:href="#glyph-1-0" x="14.7" y="72.305"/>
</g>
<g fill="rgb(0%, 0%, 0%)" fill-opacity="1">
<use xlink:href="#glyph-0-1" x="12.904739" y="72.305"/>
</g>
<g fill="rgb(0%, 0%, 0%)" fill-opacity="1">
<use xlink:href="#glyph-0-3" x="20.917659" y="72.305"/>
</g>
<g fill="rgb(0%, 0%, 0%)" fill-opacity="1">
<use xlink:href="#glyph-1-2" x="31.436172" y="72.305"/>
</g>
<path fill="none" stroke-width="0.4" stroke-linecap="butt" stroke-linejoin="round" stroke="rgb(17.298889%, 62.69989%, 17.298889%)" stroke-opacity="1" stroke-miterlimit="10" d="M 139.664062 713.704781 L 139.664062 705.704781 " transform="matrix(1, 0, 0, -1, -119, 791.654)"/>
<path fill="none" stroke-width="0.4" stroke-linecap="butt" stroke-linejoin="round" stroke="rgb(17.298889%, 62.69989%, 17.298889%)" stroke-opacity="1" stroke-miterlimit="10" d="M 140.660156 708.704781 L 139.664062 705.704781 L 138.664062 708.704781 " transform="matrix(1, 0, 0, -1, -119, 791.654)"/>
<path fill="none" stroke-width="0.4" stroke-linecap="butt" stroke-linejoin="round" stroke="rgb(17.298889%, 62.69989%, 17.298889%)" stroke-opacity="1" stroke-miterlimit="10" d="M 139.664062 713.712594 L 131.664062 713.712594 " transform="matrix(1, 0, 0, -1, -119, 791.654)"/>
<path fill="none" stroke-width="0.4" stroke-linecap="butt" stroke-linejoin="round" stroke="rgb(17.298889%, 62.69989%, 17.298889%)" stroke-opacity="1" stroke-miterlimit="10" d="M 134.664062 712.712594 L 131.664062 713.712594 L 134.664062 714.712594 " transform="matrix(1, 0, 0, -1, -119, 791.654)"/>
<g fill="rgb(0%, 0%, 0%)" fill-opacity="1">
<use xlink:href="#glyph-1-0" x="54.828" y="28.223"/>
</g>
<g fill="rgb(0%, 0%, 0%)" fill-opacity="1">
<use xlink:href="#glyph-0-0" x="53.092515" y="28.223"/>
</g>
<g fill="rgb(0%, 0%, 0%)" fill-opacity="1">
<use xlink:href="#glyph-0-2" x="61.545781" y="28.223"/>
</g>
<g fill="rgb(0%, 0%, 0%)" fill-opacity="1">
<use xlink:href="#glyph-1-2" x="72.064294" y="28.223"/>
</g>
<g fill="rgb(0%, 0%, 0%)" fill-opacity="1">
<use xlink:href="#glyph-1-0" x="55.037" y="38.012"/>
</g>
<g clip-path="url(#clip-0)">
<g fill="rgb(0%, 0%, 0%)" fill-opacity="1">
<use xlink:href="#glyph-0-1" x="53.241739" y="38.012"/>
</g>
</g>
<g fill="rgb(0%, 0%, 0%)" fill-opacity="1">
<use xlink:href="#glyph-0-3" x="61.254659" y="38.012"/>
</g>
<g fill="rgb(0%, 0%, 0%)" fill-opacity="1">
<use xlink:href="#glyph-1-2" x="71.773172" y="38.012"/>
</g>
<path fill="none" stroke-width="0.4" stroke-linecap="butt" stroke-linejoin="round" stroke="rgb(17.298889%, 62.69989%, 17.298889%)" stroke-opacity="1" stroke-miterlimit="10" d="M 176 748.001656 L 184 748.001656 " transform="matrix(1, 0, 0, -1, -119, 791.654)"/>
<path fill="none" stroke-width="0.4" stroke-linecap="butt" stroke-linejoin="round" stroke="rgb(17.298889%, 62.69989%, 17.298889%)" stroke-opacity="1" stroke-miterlimit="10" d="M 181 748.99775 L 184 748.001656 L 181 747.001656 " transform="matrix(1, 0, 0, -1, -119, 791.654)"/>
<path fill="none" stroke-width="0.4" stroke-linecap="butt" stroke-linejoin="round" stroke="rgb(17.298889%, 62.69989%, 17.298889%)" stroke-opacity="1" stroke-miterlimit="10" d="M 176 748.001656 L 176 740.001656 " transform="matrix(1, 0, 0, -1, -119, 791.654)"/>
<path fill="none" stroke-width="0.4" stroke-linecap="butt" stroke-linejoin="round" stroke="rgb(17.298889%, 62.69989%, 17.298889%)" stroke-opacity="1" stroke-miterlimit="10" d="M 177 743.001656 L 176 740.001656 L 175 743.001656 " transform="matrix(1, 0, 0, -1, -119, 791.654)"/>
<g fill="rgb(0%, 0%, 0%)" fill-opacity="1">
<use xlink:href="#glyph-1-0" x="124.379" y="60.156"/>
</g>
<g fill="rgb(0%, 0%, 0%)" fill-opacity="1">
<use xlink:href="#glyph-0-0" x="122.643515" y="60.156"/>
</g>
<g fill="rgb(0%, 0%, 0%)" fill-opacity="1">
<use xlink:href="#glyph-0-3" x="131.096781" y="60.156"/>
</g>
<g fill="rgb(0%, 0%, 0%)" fill-opacity="1">
<use xlink:href="#glyph-1-2" x="141.615294" y="60.156"/>
</g>
<g fill="rgb(0%, 0%, 0%)" fill-opacity="1">
<use xlink:href="#glyph-1-0" x="124.588" y="69.945"/>
</g>
<g fill="rgb(0%, 0%, 0%)" fill-opacity="1">
<use xlink:href="#glyph-0-1" x="122.792739" y="69.945"/>
</g>
<g fill="rgb(0%, 0%, 0%)" fill-opacity="1">
<use xlink:href="#glyph-0-2" x="130.805659" y="69.945"/>
</g>
<g fill="rgb(0%, 0%, 0%)" fill-opacity="1">
<use xlink:href="#glyph-1-2" x="141.324172" y="69.945"/>
</g>
<path fill="none" stroke-width="0.4" stroke-linecap="butt" stroke-linejoin="round" stroke="rgb(17.298889%, 62.69989%, 17.298889%)" stroke-opacity="1" stroke-miterlimit="10" d="M 252 708.001656 L 244 708.001656 " transform="matrix(1, 0, 0, -1, -119, 791.654)"/>
<path fill="none" stroke-width="0.4" stroke-linecap="butt" stroke-linejoin="round" stroke="rgb(17.298889%, 62.69989%, 17.298889%)" stroke-opacity="1" stroke-miterlimit="10" d="M 247 707.001656 L 244 708.001656 L 247 708.99775 " transform="matrix(1, 0, 0, -1, -119, 791.654)"/>
<path fill="none" stroke-width="0.4" stroke-linecap="butt" stroke-linejoin="round" stroke="rgb(17.298889%, 62.69989%, 17.298889%)" stroke-opacity="1" stroke-miterlimit="10" d="M 252 708.001656 L 252 716.001656 " transform="matrix(1, 0, 0, -1, -119, 791.654)"/>
<path fill="none" stroke-width="0.4" stroke-linecap="butt" stroke-linejoin="round" stroke="rgb(17.298889%, 62.69989%, 17.298889%)" stroke-opacity="1" stroke-miterlimit="10" d="M 251 713.001656 L 252 716.001656 L 253 713.001656 " transform="matrix(1, 0, 0, -1, -119, 791.654)"/>
<g fill="rgb(0%, 0%, 0%)" fill-opacity="1">
<use xlink:href="#glyph-1-0" x="124.379" y="16.156"/>
</g>
<g fill="rgb(0%, 0%, 0%)" fill-opacity="1">
<use xlink:href="#glyph-0-0" x="122.643515" y="16.156"/>
</g>
<g fill="rgb(0%, 0%, 0%)" fill-opacity="1">
<use xlink:href="#glyph-0-3" x="131.096781" y="16.156"/>
</g>
<g fill="rgb(0%, 0%, 0%)" fill-opacity="1">
<use xlink:href="#glyph-1-2" x="141.615294" y="16.156"/>
</g>
<g fill="rgb(0%, 0%, 0%)" fill-opacity="1">
<use xlink:href="#glyph-1-0" x="124.588" y="25.945"/>
</g>
<g fill="rgb(0%, 0%, 0%)" fill-opacity="1">
<use xlink:href="#glyph-0-1" x="122.792739" y="25.945"/>
</g>
<g fill="rgb(0%, 0%, 0%)" fill-opacity="1">
<use xlink:href="#glyph-0-3" x="130.805659" y="25.945"/>
</g>
<g fill="rgb(0%, 0%, 0%)" fill-opacity="1">
<use xlink:href="#glyph-1-2" x="141.324172" y="25.945"/>
</g>
<path fill="none" stroke-width="0.4" stroke-linecap="butt" stroke-linejoin="round" stroke="rgb(17.298889%, 62.69989%, 17.298889%)" stroke-opacity="1" stroke-miterlimit="10" d="M 252 760.005562 L 252 752.005562 " transform="matrix(1, 0, 0, -1, -119, 791.654)"/>
<path fill="none" stroke-width="0.4" stroke-linecap="butt" stroke-linejoin="round" stroke="rgb(17.298889%, 62.69989%, 17.298889%)" stroke-opacity="1" stroke-miterlimit="10" d="M 253 755.005562 L 252 752.005562 L 251 755.005562 " transform="matrix(1, 0, 0, -1, -119, 791.654)"/>
<path fill="none" stroke-width="0.4" stroke-linecap="butt" stroke-linejoin="round" stroke="rgb(17.298889%, 62.69989%, 17.298889%)" stroke-opacity="1" stroke-miterlimit="10" d="M 252 759.99775 L 244 759.99775 " transform="matrix(1, 0, 0, -1, -119, 791.654)"/>
<path fill="none" stroke-width="0.4" stroke-linecap="butt" stroke-linejoin="round" stroke="rgb(17.298889%, 62.69989%, 17.298889%)" stroke-opacity="1" stroke-miterlimit="10" d="M 247 758.99775 L 244 759.99775 L 247 760.99775 " transform="matrix(1, 0, 0, -1, -119, 791.654)"/>
<path fill-rule="evenodd" fill="rgb(100%, 100%, 100%)" fill-opacity="1" stroke-width="0.8" stroke-linecap="butt" stroke-linejoin="round" stroke="rgb(17.298889%, 62.69989%, 17.298889%)" stroke-opacity="1" stroke-miterlimit="10" d="M 174.449219 723.126656 C 174.449219 724.939156 172.980469 726.411812 171.164062 726.411812 C 169.351562 726.411812 167.882812 724.939156 167.882812 723.126656 C 167.882812 721.314156 169.351562 719.8415 171.164062 719.8415 C 172.980469 719.8415 174.449219 721.314156 174.449219 723.126656 " transform="matrix(1, 0, 0, -1, -119, 791.654)"/>
<path fill-rule="evenodd" fill="rgb(17.298889%, 62.69989%, 17.298889%)" fill-opacity="1" stroke-width="0.8" stroke-linecap="butt" stroke-linejoin="round" stroke="rgb(17.298889%, 62.69989%, 17.298889%)" stroke-opacity="1" stroke-miterlimit="10" d="M 232.53125 740.798531 C 232.53125 742.614937 231.058594 744.083687 229.246094 744.083687 C 227.429688 744.083687 225.960938 742.614937 225.960938 740.798531 C 225.960938 738.986031 227.429688 737.513375 229.246094 737.513375 C 231.058594 737.513375 232.53125 738.986031 232.53125 740.798531 " transform="matrix(1, 0, 0, -1, -119, 791.654)"/>
</svg>
